# xmcd
# 
# Track frame offsets:
#     150
#     19699
#     30016
#     51390
#     74396
#     81542
#     91277
#     106530
#     127505
#     156320
#     177923
#     192007
#     214045
#     237317
#     252557
#     287096
# 
# Disc length: 4040
# 
# Revision: 0
# Processed by: cddbd v1.5.2PL0 Copyright (c) Steve Scherf et al.
# Submitted via: fre:ac v1.0.31
# 
DISCID=d00fc610
DTITLE=Various Artist - StoMo's Artist Collection: Blues and Boogie Vol. 4
DYEAR=2011
DGENRE=Blues
TTITLE0=Dave Moretti Blues Revue - Jump Tha Blues
TTITLE1=Bena and Ptaszek - On A Monday
TTITLE2=Street Rats - Do You Know What It Means To Miss New Orleans
TTITLE3=Crazy Hambones - Like Mike
TTITLE4=Calo Rapallo - Nimm´s leicht
TTITLE5=Jan Preston - Devil Take Me Tonight
TTITLE6=Gospel 4 - Precious Lord
TTITLE7=Top Dog Brass Band - You Are The Sunshine Of My Life
TTITLE8=Mad Dawgs - Big Kat Boogie
TTITLE9=Little Willie Littlefield - Happy Payday
TTITLE10=Henning Pertiet - Sierksdorf
TTITLE11=Fritz Cats - When A Man Loves A Woman
TTITLE12=Dynamite Daze - Bertram
TTITLE13=Steve "Big Man" Clayton - I Like It Like That
TTITLE14=Morblus - C.O.D.
TTITLE15=Paul Orta and Micha Maass and Peter Crow.C - Let´s Have Some Fun
EXTD=
EXTT0=
EXTT1=
EXTT2=
EXTT3=
EXTT4=
EXTT5=
EXTT6=
EXTT7=
EXTT8=
EXTT9=
EXTT10=
EXTT11=
EXTT12=
EXTT13=
EXTT14=
EXTT15=
PLAYORDER=
